<?xml version="1.0" standalone="no"?>
<!DOCTYPE svg PUBLIC "-//W3C//DTD SVG 20010904//EN"
 "http://www.w3.org/TR/2001/REC-SVG-20010904/DTD/svg10.dtd">
<svg version="1.0" xmlns="http://www.w3.org/2000/svg"
 width="1280.000000pt" height="1024.000000pt" viewBox="0 0 1280.000000 1024.000000"
 preserveAspectRatio="xMidYMid meet">
<g transform="translate(0.000000,1024.000000) scale(0.100000,-0.100000)"
fill="#000000" stroke="none">
<path d="M2000 10228 c-241 -10 -339 -23 -485 -63 -339 -93 -685 -299 -974
-580 -203 -197 -358 -407 -428 -578 -44 -111 -44 -131 7 -157 22 -11 40 -26
40 -33 0 -7 -13 -47 -29 -88 -38 -99 -86 -294 -108 -439 -16 -107 -18 -331
-21 -3185 -2 -2219 0 -3094 8 -3155 44 -335 105 -554 216 -779 110 -224 234
-391 425 -576 246 -238 520 -399 849 -498 103 -31 203 -51 447 -86 44 -7 313
-11 702 -11 l631 0 0 230 c0 127 4 230 8 230 5 0 21 -14 37 -30 23 -24 37 -30
72 -30 46 0 112 -28 151 -64 41 -37 54 -74 59 -178 3 -54 9 -101 13 -103 14
-8 198 58 277 100 305 161 521 442 616 799 20 79 21 104 27 866 l5 785 86 5
c51 3 93 11 103 19 15 12 16 74 16 692 l0 678 -22 15 c-16 11 -46 16 -99 16
-61 0 -78 3 -83 16 -8 20 -8 2638 0 2658 5 13 22 16 83 16 53 0 83 5 99 16
l22 15 0 678 c0 615 -2 680 -16 692 -10 8 -52 16 -103 19 l-86 5 -6 470 c-5
385 -9 482 -22 537 -105 431 -392 753 -801 897 -160 57 -214 62 -638 68 -280
4 -388 8 -389 17 -1 6 0 23 1 37 0 14 -5 30 -12 36 -40 32 -273 40 -678 21z
m1014 -1004 c19 -19 22 -124 4 -142 -9 -9 -82 -12 -265 -12 l-253 0 -10 26
c-15 38 -12 97 6 122 15 22 18 22 259 22 208 0 246 -2 259 -16z m-1059 -869
c92 -25 233 -98 305 -158 122 -102 209 -236 256 -392 35 -119 38 -298 6 -416
-61 -227 -223 -420 -435 -519 -202 -95 -463 -95 -666 0 -365 171 -545 592
-415 972 95 279 340 483 639 532 56 9 250 -3 310 -19z m-120 -2440 c56 -9 149
-61 190 -106 168 -186 111 -482 -113 -587 -50 -24 -70 -27 -157 -27 -87 0
-107 3 -157 27 -187 87 -265 315 -172 500 52 102 154 178 265 197 54 9 67 8
144 -4z m-793 -766 c117 -25 212 -99 265 -207 25 -50 28 -68 28 -152 0 -87 -3
-101 -32 -161 -39 -79 -102 -140 -181 -177 -49 -23 -70 -27 -152 -27 -88 0
-101 3 -162 33 -132 65 -202 179 -202 332 -1 73 3 94 28 147 30 65 105 147
164 177 39 20 127 44 164 45 15 1 51 -4 80 -10z m1632 -20 c79 -29 165 -111
200 -188 56 -125 40 -269 -42 -376 -166 -219 -513 -182 -628 68 -26 55 -29 73
-29 157 0 85 3 101 29 154 87 178 284 255 470 185z m-833 -789 c265 -82 346
-414 149 -610 -124 -125 -312 -145 -459 -50 -74 48 -124 115 -151 199 -25 80
-25 142 0 222 37 117 122 203 239 240 74 24 145 23 222 -1z m718 -1174 c49
-26 55 -54 59 -266 4 -243 0 -274 -43 -317 l-33 -33 -235 0 c-130 0 -247 4
-261 10 -14 5 -35 24 -46 42 -19 31 -20 47 -18 276 l3 244 33 29 32 29 241 0
c188 0 246 -3 268 -14z"/>
<path d="M10190 10228 c-70 -13 -82 -23 -78 -67 l3 -36 -385 -6 c-423 -7 -487
-14 -646 -70 -401 -141 -677 -444 -792 -869 -26 -94 -26 -100 -31 -565 l-6
-470 -89 -5 c-71 -5 -91 -9 -102 -25 -12 -16 -14 -131 -14 -691 0 -611 1 -673
16 -685 10 -8 52 -16 103 -19 l86 -5 0 -1340 0 -1340 -86 -5 c-51 -3 -93 -11
-103 -19 -15 -12 -16 -74 -16 -685 0 -564 2 -675 14 -692 12 -15 30 -20 103
-24 l88 -5 6 -780 c6 -850 4 -827 66 -999 105 -291 330 -548 600 -684 50 -26
235 -92 255 -92 3 0 8 47 11 105 4 59 13 118 21 133 31 60 119 112 190 112 36
0 49 5 73 30 15 17 31 30 35 30 5 0 8 -104 8 -230 l0 -231 663 4 c705 3 742 5
985 58 291 63 617 222 855 417 84 70 246 232 312 315 195 242 350 572 410 872
52 264 50 99 50 3400 0 2503 -2 3099 -13 3180 -24 177 -52 307 -98 441 -24 73
-44 135 -44 138 0 4 16 14 35 21 53 23 57 41 30 118 -101 289 -444 677 -811
919 -266 175 -569 296 -819 327 -218 26 -776 38 -885 19z m-60 -908 l5 -95 80
-3 c43 -2 85 -8 92 -14 8 -6 13 -33 13 -69 0 -80 -11 -89 -111 -89 l-79 0 0
-73 c0 -43 -5 -78 -12 -85 -7 -7 -38 -12 -69 -12 -78 0 -89 13 -89 101 l0 69
-73 0 c-100 0 -109 8 -105 95 l3 70 85 5 85 5 5 85 c3 47 9 91 13 98 6 9 30
12 80 10 l72 -3 5 -95z m1088 -615 c81 -36 161 -121 192 -202 30 -79 30 -187
0 -265 -30 -80 -104 -159 -188 -200 -60 -30 -75 -33 -157 -33 -82 0 -97 3
-157 33 -134 66 -210 186 -210 332 -1 166 100 301 267 357 65 21 179 12 253
-22z m-782 -784 c78 -37 142 -99 180 -177 26 -53 29 -69 29 -154 0 -87 -3
-101 -32 -161 -39 -79 -102 -140 -181 -177 -49 -23 -70 -27 -152 -27 -88 0
-101 3 -162 33 -78 38 -139 101 -176 182 -21 46 -26 70 -26 145 -1 81 2 97 31
157 89 188 302 266 489 179z m1569 -1 c167 -81 250 -264 197 -436 -99 -322
-536 -358 -685 -55 -29 60 -32 74 -32 161 0 82 4 103 27 152 87 186 312 267
493 178z m-783 -782 c147 -69 235 -236 207 -393 -62 -346 -524 -423 -688 -115
-58 109 -60 233 -6 340 45 89 96 136 194 177 80 33 211 30 293 -9z m34 -1598
c280 -72 500 -289 576 -567 32 -120 30 -298 -6 -418 -81 -270 -294 -477 -566
-551 -90 -25 -300 -25 -390 0 -491 134 -738 673 -514 1120 45 89 65 117 139
195 102 107 229 182 375 220 105 28 279 28 386 1z m-782 -2336 c3 -9 6 -74 6
-145 l0 -129 121 0 120 0 -3 33 -3 32 -81 3 c-95 3 -94 2 -94 112 0 100 6 113
47 107 96 -16 196 -96 245 -195 30 -61 33 -74 33 -162 0 -85 -3 -101 -28 -148
-55 -104 -152 -183 -244 -198 -36 -5 -41 -4 -46 17 -4 13 -7 79 -7 147 l0 122
-121 0 -120 0 3 -32 3 -33 80 -3 c48 -2 82 -8 87 -15 9 -14 11 -168 2 -191 -8
-21 -32 -20 -98 5 -164 61 -262 260 -212 431 31 109 123 207 225 241 60 20 78
21 85 1z"/>
</g>
</svg>
